<?xml version="1.0" encoding="UTF-8"?>
<svg width="22px" height="22px" viewBox="0 0 22 22" version="1.1" xmlns="http://www.w3.org/2000/svg" xmlns:xlink="http://www.w3.org/1999/xlink">
    <!-- Generator: Sketch 55.2 (78181) - https://sketchapp.com -->
    <title>geren-N</title>
    <desc>Created with Sketch.</desc>
    <g id="页面1" stroke="none" stroke-width="1" fill="none" fill-rule="evenodd">
        <g id="VT-公链" transform="translate(-41.000000, -185.000000)" fill="#0E8DC9" fill-rule="nonzero">
            <g id="geren-N" transform="translate(41.000000, 185.000000)">
                <path d="M11,2.81854517 C8.07666666,2.81854517 5.37611111,4.37729816 3.91444445,6.9089871 C2.45278786,9.42947432 2.45278786,12.5705257 3.91444445,15.0910129 C5.37555557,17.6221309 8.07666668,19.1814548 11,19.1814548 C15.5188889,19.1814548 19.1816667,15.5180998 19.1816667,10.999429 C19.1816667,6.48190019 15.5188889,2.81854517 11,2.81854517 Z M1,10.999429 C1,5.47698984 5.47777777,1 11,1 C16.5222222,1 21,5.47698984 21,11.000571 C21,16.5230102 16.5222222,21 11,21 C5.47777777,21 1,16.5224392 1,11.000571 L1,10.999429 Z" id="形状"></path>
                <path d="M11.5410953,14.4861275 C9.52665315,14.4861275 8.1175706,15.1873047 7.2452042,15.8273858 C6.98960505,16.0213877 6.65473049,16.0543622 6.36959479,15.9136055 C6.0838018,15.77301 5.8919056,15.480627 5.86749494,15.1485802 C5.84308428,14.8165333 5.98994776,14.496357 6.25176587,14.3108332 C7.36897862,13.4891769 9.11857592,12.640113 11.5410953,12.640113 C13.9636146,12.640113 15.7137525,13.4903189 16.8304247,14.3108332 C17.0916137,14.4967881 17.2379708,14.8167521 17.213583,15.1484889 C17.1891951,15.4802256 16.9978302,15.7724815 16.7125958,15.9136055 C16.4274601,16.0543622 16.0925855,16.0213877 15.8369864,15.8273858 C14.965701,15.1878757 13.5566184,14.4855565 11.5410953,14.4855565 L11.5410953,14.4861275 Z M11.5410953,9.87137678 C10.5774183,9.86980116 9.79732953,9.04340421 9.79852309,8.02536231 C9.79732952,7.00732041 10.5774183,6.18092344 11.5410953,6.17934782 C12.5047722,6.18092344 13.284861,7.00732041 13.2836675,8.02536231 C13.284861,9.04340421 12.5047722,9.86980116 11.5410953,9.87137678 L11.5410953,9.87137678 Z M8.05541314,8.02536231 C8.05541314,10.0638008 9.61583559,11.7173913 11.5410953,11.7173913 C13.466355,11.7173913 15.0267774,10.0643718 15.0267774,8.02536231 C15.0267774,5.98635283 13.466355,4.33333333 11.5410953,4.33333333 C9.61583559,4.33333333 8.05541314,5.98635281 8.05541314,8.02536231 Z" id="形状"></path>
            </g>
        </g>
    </g>
</svg>