<?xml version="1.0" encoding="UTF-8"?>
<svg width="22px" height="24px" viewBox="0 0 22 24" version="1.1" xmlns="http://www.w3.org/2000/svg" xmlns:xlink="http://www.w3.org/1999/xlink">
    <!-- Generator: Sketch 55.2 (78181) - https://sketchapp.com -->
    <title>icon-xuanjubiaojuex</title>
    <desc>Created with Sketch.</desc>
    <g id="页面1" stroke="none" stroke-width="1" fill="none" fill-rule="evenodd">
        <g id="VT-公链" transform="translate(-40.000000, -372.000000)" fill="#444445" fill-rule="nonzero" stroke="#444445" stroke-width="0.5">
            <g id="icon-xuanjubiaojuex" transform="translate(40.000000, 372.000000)">
                <path d="M13.6050909,14.0888634 C13.3038447,14.0888634 13.0596363,13.845113 13.0596363,13.5444317 C13.0596363,13.2437504 13.3038447,13 13.6050909,13 L19.4545455,13 C19.599209,13 19.7379475,13.0573596 19.8402401,13.1594604 C19.9425326,13.2615611 20,13.4000394 20,13.5444317 L20,21.4555683 C20,21.7562496 19.7557917,22 19.4545455,22 L2.54545454,22 C2.24420832,22 2,21.7562496 2,21.4555683 L2,13.5444317 C2,13.4000394 2.05746736,13.2615611 2.15975993,13.1594604 C2.2620525,13.0573596 2.400791,13 2.54545454,13 L6.76672728,13 C7.06797351,13 7.31218183,13.2437504 7.31218183,13.5444317 C7.31218183,13.845113 7.06797351,14.0888634 6.76672728,14.0888634 L3.0909091,14.0888634 L3.0909091,20.9111366 L18.9090909,20.9111366 L18.9090909,14.0888634 L13.6050909,14.0888634 Z" id="路径"></path>
                <path d="M5.53905715,18 C5.2413441,18 5,17.7761424 5,17.5 C5,17.2238576 5.2413441,17 5.53905715,17 L15.4609429,17 C15.7586559,17 16,17.2238576 16,17.5 C16,17.7761424 15.7586559,18 15.4609429,18 L5.53905715,18 Z" id="路径"></path>
                <path d="M4.3235943,11.0019903 L9.56029107,16.5873916 L16.6758571,8.99800966 L11.4391604,3.41260838 L4.32414288,11.0019903 L4.3235943,11.0019903 Z M3.16061533,10.5883219 L11.0507693,2.17160315 C11.1536645,2.06173408 11.2932892,2 11.4388861,2 C11.584483,2 11.7241076,2.06173408 11.8270029,2.17160315 L17.8393847,8.58434125 C18.0535384,8.81282421 18.0535384,9.18319512 17.8393847,9.41167808 L9.94868216,17.8283968 C9.84578691,17.9382659 9.70616223,18 9.56056535,18 C9.41496847,18 9.27534379,17.9382659 9.17244854,17.8283968 L3.16061533,11.4156587 C2.94646156,11.1871758 2.94646156,10.8168049 3.16061533,10.5883219 Z" id="形状"></path>
                <path d="M13.0062037,8.13748576 C13.2365226,7.95168746 13.60238,7.95456076 13.828487,8.14394363 C14.0545941,8.33332651 14.0575119,8.63933218 13.835045,8.83170726 L10.2187626,11.8563543 C9.98970212,12.0478819 9.61839507,12.0478819 9.38933461,11.8563543 L7.17909094,10.0077136 C7.02660513,9.88453242 6.96545053,9.70211985 7.01913193,9.5305862 C7.07281333,9.35905256 7.23297667,9.22509245 7.43806311,9.1801935 C7.64314955,9.13529454 7.8612429,9.18644405 8.0085189,9.31398269 L9.80346202,10.8152674 L13.0056171,8.13748576 L13.0062037,8.13748576 Z" id="路径"></path>
            </g>
        </g>
    </g>
</svg>