<?xml version="1.0" encoding="UTF-8"?>
<svg width="22px" height="22px" viewBox="0 0 22 22" version="1.1" xmlns="http://www.w3.org/2000/svg" xmlns:xlink="http://www.w3.org/1999/xlink">
    <!-- Generator: Sketch 55.2 (78181) - https://sketchapp.com -->
    <title>zhuanzhang</title>
    <desc>Created with Sketch.</desc>
    <g id="页面1" stroke="none" stroke-width="1" fill="none" fill-rule="evenodd">
        <g id="VT-公链" transform="translate(-41.000000, -311.000000)" fill="#444445" fill-rule="nonzero">
            <g id="zhuanzhang" transform="translate(41.000000, 311.000000)">
                <path d="M20.4277108,10.9940923 C19.7541133,11.000427 16.4516472,9.1303853 16.3473475,9.03290083 C16.0965067,8.79840154 16.1912935,8.5064931 16.4472434,8.4665645 C16.7031934,8.4266359 18.1403866,8.25910347 18.1403866,8.25910347 C17.257121,5.94435566 15.2861375,4.09571398 12.6992966,3.49653349 C8.57053516,2.53986105 4.3008121,5.25353852 3.35715568,9.39515068 C3.34903232,9.4304681 3.29201916,9.85270517 2.95002574,9.83931179 C2.71851001,9.83025712 1.96006617,9.5345759 1.68586005,9.40846021 C1.37281144,9.26450766 1.28822162,9.30169051 1.38315803,8.83833014 C2.45704473,3.57318382 7.95660161,0.0247576142 13.2351176,1.23885947 C17.6157245,2.24625485 20.658799,5.9732384 20.9931393,10.2196919 C21.0491264,10.788774 20.7536499,10.9909532 20.4276894,10.9940923 L20.4277108,10.9940923 Z M13.5332021,12.148107 C13.9668185,12.148107 14.3184317,12.4924152 14.3184317,12.917901 C14.3184317,13.3426533 13.9668185,13.687737 13.5332021,13.687737 L11.9629141,13.687737 L11.9629141,14.6499847 C11.9629141,15.1815067 11.52359,15.6122744 10.9814626,15.6122744 C10.4393781,15.6122744 10.0000326,15.1815276 10.0000326,14.6499847 L10.0000326,13.687737 L8.42974452,13.687737 C7.99612816,13.687737 7.64462186,13.3426323 7.64462186,12.917901 C7.64462186,12.4923732 7.99614954,12.148107 8.42974452,12.148107 L10.0000326,12.148107 L10.0000326,11.3782501 L8.42974452,11.3782501 C7.99612816,11.3782501 7.64462186,11.0332293 7.64462186,10.608477 C7.64462186,10.1829912 7.99614954,9.83864108 8.42974452,9.83864108 L10.0000326,9.83864108 L10.0000326,9.78598982 L8.25761482,8.07794711 C7.94882029,7.77497184 7.94882029,7.28409112 8.25761482,6.98147217 C8.56640935,6.67885323 9.06691516,6.67887418 9.37573107,6.98147217 L10.9682729,8.54252316 L12.5669927,6.97505845 C12.8757659,6.67283774 13.3763144,6.67283774 13.6850876,6.97505845 C13.9939035,7.27801275 13.9939035,7.76895635 13.6850876,8.07153338 L11.9629782,9.76004147 L11.9629782,9.83862012 L13.5332663,9.83862012 C13.9668826,9.83862012 14.3184317,10.1829702 14.3184317,10.6084561 C14.3184317,11.0332502 13.9668826,11.3782291 13.5332663,11.3782291 L11.9629782,11.3782291 L11.9629782,12.148086 L13.5332663,12.148086 L13.5332021,12.148107 Z M5.65630146,13.2344164 C6.00073188,13.4503452 5.91772398,13.8840473 5.5392182,13.9226555 C5.16071242,13.9612636 3.97540744,14.0636107 3.97540744,14.0636107 C4.91506631,16.2227733 6.81950235,17.9251778 9.28194903,18.4954126 C13.4106891,19.4516659 17.6329974,16.8693021 18.5769103,12.72769 C18.5962781,12.6427186 18.5956582,12.6560491 18.6294342,12.4736141 C18.6632103,12.2911792 18.7179147,12.0136493 19.0813923,12.1371659 C19.4448698,12.2606826 20.3314276,12.5162256 20.6076004,12.5886211 C20.8837733,12.6610166 20.8526907,12.7677863 20.818081,13.0194098 C20.807542,13.0959344 20.7916159,13.1660033 20.774963,13.2396773 C19.5391436,18.6247142 14.1597483,21.9840612 8.75989494,20.7417264 C4.38446132,19.7354419 1.34311842,16.0167585 1.00283519,11.7766767 C0.956681679,11.0480689 1.48168583,10.8993584 2.01836196,11.1777058 C2.44056286,11.3966738 5.31182828,13.0184456 5.6562587,13.2343745 L5.65630146,13.2344164 Z" id="形状"></path>
            </g>
        </g>
    </g>
</svg>