<?xml version="1.0" encoding="UTF-8"?>
<svg width="22px" height="20px" viewBox="0 0 22 20" version="1.1" xmlns="http://www.w3.org/2000/svg" xmlns:xlink="http://www.w3.org/1999/xlink">
    <!-- Generator: Sketch 55.2 (78181) - https://sketchapp.com -->
    <title>kuahangzhanghudanbizhuanzhang</title>
    <desc>Created with Sketch.</desc>
    <g id="页面1" stroke="none" stroke-width="1" fill="none" fill-rule="evenodd">
        <g id="VT-公链" transform="translate(-41.000000, -250.000000)" fill="#444445" fill-rule="nonzero">
            <g id="kuahangzhanghudanbizhuanzhang" transform="translate(41.000000, 250.000000)">
                <path d="M17.53,9.5 L17.53,5.86388889 L5.8925,5.86388889 L5.8925,14.0805556 L10.69,14.0805556 L10.69,15.875 L5.275,15.875 C4.61,15.875 4.04,15.3083333 4.04,14.6 L4.04,5.39166667 C4.04,4.68333333 4.5625,4.11666667 5.275,4.11666667 L18.005,4.11666667 C18.67,4.11666667 19.24,4.68333333 19.24,5.39166667 L19.24,10.0194444 C18.86,9.87777778 18.575,9.78333333 18.385,9.73611111 C18.195,9.68888889 17.8625,9.59444444 17.53,9.5 L17.53,9.5 Z M2.7575,3.21944444 L2.7575,12.5694444 C2.1875,12.5694444 1,12.5222222 1,11.4833333 L1,2.03888889 C1,1.47222222 1.475,1 2.045,1 L13.9675,1 C14.87,1 15.0125,2.13333333 15.0125,2.7 L3.2325,2.7 C2.9475,2.74722222 2.7575,2.98333333 2.7575,3.21944444 Z M1.76,14.1277778 C2.045,14.175 2.2825,14.4583333 2.235,14.7888889 C2.235,14.7888889 2.14,15.45 2.615,16.0166667 C2.995,16.4888889 3.5175,16.8194444 4.4675,16.8666667 L4.4675,15.875 L6.605,17.4805556 L4.4675,18.9444444 L4.4675,17.9527778 C3.2325,17.8111111 2.33,17.4333333 1.76,16.725 C0.9525,15.7333333 1.1425,14.6 1.1425,14.5527778 C1.1425,14.2694444 1.4275,14.0805556 1.76,14.1277778 Z M15.9625,10.9166667 C18.195,10.9166667 20,12.7111111 20,14.9305556 C20,17.15 18.195,18.9444444 15.9625,18.9444444 C13.73,18.9444444 11.925,17.15 11.925,14.9305556 C11.925,12.7111111 13.73,10.9166667 15.9625,10.9166667 L15.9625,10.9166667 Z M16.2,9.925 L8.7425,9.925 C8.41,9.925 8.1725,9.68888889 8.1725,9.40555556 C8.1725,9.12222222 8.41,8.88611111 8.7425,8.88611111 L13.54,8.88611111 L13.54,7.65833333 C13.54,7.56388889 13.635,7.56388889 13.6825,7.56388889 L16.2,9.73611111 C16.2475,9.83055556 16.2475,9.925 16.2,9.925 L16.2,9.925 Z M14.1575,12.9 L15.2975,14.6 L14.395,14.6 C14.2525,14.6944444 14.205,14.7888889 14.205,14.8833333 C14.205,14.9777778 14.2525,15.1194444 14.395,15.1666667 L15.5825,15.1666667 L15.5825,15.6388889 L14.395,15.6388889 C14.2525,15.6861111 14.205,15.7805556 14.205,15.9222222 C14.205,16.0638889 14.2525,16.1583333 14.395,16.2055556 L15.5825,16.2055556 L15.5825,17.4333333 C15.5825,17.8111111 15.725,18 16.0575,17.9527778 C16.39,17.9055556 16.5325,17.7638889 16.485,17.4333333 L16.485,16.2055556 L17.6725,16.2055556 C17.7675,16.1111111 17.815,16.0166667 17.815,15.9222222 C17.815,15.7805556 17.7675,15.6861111 17.6725,15.6388889 L16.485,15.6388889 L16.485,15.1666667 L17.6725,15.1666667 C17.7675,15.0722222 17.815,14.9777778 17.815,14.8833333 C17.815,14.7416667 17.7675,14.6472222 17.6725,14.6 L16.7225,14.6 L17.8625,12.9 C17.9575,12.6638889 17.91,12.475 17.6725,12.3805556 C17.435,12.2861111 17.2925,12.3333333 17.15,12.5694444 L16.01,14.2694444 L14.9175,12.5694444 C14.775,12.3333333 14.585,12.2861111 14.3475,12.4277778 C14.11,12.5694444 14.0625,12.6638889 14.1575,12.9 L14.1575,12.9 Z" id="形状"></path>
            </g>
        </g>
    </g>
</svg>